Coordinates
version=1
nRows=19
nColumns=24
inDegrees=yes

Units are S.I. units (second, meters, Newtons, ...)
Angles are in degrees.

endheader
time	pelvis_tilt	pelvis_list	pelvis_rotation	pelvis_tx	pelvis_ty	pelvis_tz	hip_flexion_r	hip_adduction_r	hip_rotation_r	knee_angle_r	ankle_angle_r	subtalar_angle_r	mtp_angle_r	hip_flexion_l	hip_adduction_l	hip_rotation_l	knee_angle_l	ankle_angle_l	subtalar_angle_l	mtp_angle_l	lumbar_extension	lumbar_bending	lumbar_rotation
      1.12100000	     -0.84529291	      1.10565111	     -7.64803305	     -0.12681967	      0.99345992	      0.33214504	    -13.44687362	      0.43292271	     -2.94875270	    -11.94448973	     13.71825334	      1.51945178	     10.47890090	     20.58351007	      1.50875409	    -13.15770815	      6.01865553	      1.49245740	     -5.58061229	      7.19660235	     -4.66730963	     -1.16442086	     15.64159863
      1.12516667	     -0.79639655	      1.21593657	     -7.71125252	     -0.12077881	      0.99300138	      0.33205761	    -13.60682355	      0.21109860	     -2.95715241	    -12.42607362	     13.68956123	      1.66317580	     10.58321046	     20.55619860	      1.67377966	    -12.95185384	      5.67230654	      1.39522914	     -5.98973281	      7.21660950	     -4.66567161	     -1.32032886	     15.74801139
      1.12933333	     -0.75754775	      1.33741600	     -7.78043870	     -0.11471071	      0.99256181	      0.33197714	    -13.73701381	     -0.02369372	     -2.96064900	    -12.94074880	     13.63440994	      1.79640451	     10.71240606	     20.53490985	      1.84429763	    -12.69933644	      5.28174043	      1.24555274	     -6.44618631	      7.25157534	     -4.64682726	     -1.48760592	     15.86076403
      1.13350000	     -0.70821638	      1.47110919	     -7.84851988	     -0.10860678	      0.99216640	      0.33189407	    -13.86424871	     -0.27384728	     -2.97056570	    -13.47975765	     13.55409381	      1.92981234	     10.86673786	     20.49707381	      2.02769938	    -12.40647082	      4.85636995	      1.04100646	     -6.94412179	      7.30216160	     -4.63405160	     -1.67277368	     15.96921196
      1.13766667	     -0.69074210	      1.61450377	     -7.92210449	     -0.10247234	      0.99176722	      0.33181809	    -13.93441169	     -0.53209594	     -2.97089829	    -14.06008045	     13.44518126	      2.05064851	     11.04726687	     20.49127662	      2.21193296	    -12.08394901	      4.39502787	      0.78281774	     -7.47597511	      7.36656133	     -4.57884158	     -1.86287643	     16.08036818
      1.14183333	     -0.64066782	      1.76700237	     -7.99266738	     -0.09631316	      0.99143979	      0.33173387	    -14.02461705	     -0.80538024	     -2.98252256	    -14.66429219	     13.30062302	      2.16891601	     11.28466506	     20.43879733	      2.41226402	    -11.71180949	      3.92557955	      0.47248806	     -8.06206092	      7.45615417	     -4.56071828	     -2.06812224	     16.18988314
      1.14600000	     -0.55604120	      1.92109287	     -8.04880037	     -0.09011489	      0.99120113	      0.33165531	    -14.16059998	     -1.07232120	     -2.95700580	    -15.24625233	     13.04572460	      2.10907490	     12.34123726	     20.32641703	      2.62561276	    -11.25259269	      3.47884249	      0.05344751	     -8.75110417	      7.87359509	     -4.58155973	     -2.28878349	     16.20794507
      1.15016667	     -0.58426988	      2.10129293	     -8.14242548	     -0.08391306	      0.99082932	      0.33155986	    -14.08768229	     -1.38362302	     -3.00020914	    -15.99519395	     12.91605613	      2.36662317	     12.52430687	     20.38994012	      2.82726129	    -10.99406882	      2.89197094	     -0.26865256	     -9.17152617	      7.94171009	     -4.45111282	     -2.50975255	     16.38071353
      1.15433333	     -0.53594655	      2.28319821	     -8.21689936	     -0.07768128	      0.99060188	      0.33145151	    -14.10507883	     -1.69617525	     -3.02586847	    -16.72148144	     12.68298330	      2.49024735	     12.79902469	     20.32428594	      3.05746228	    -10.57069609	      2.39132779	     -0.73424102	     -9.85227658	      8.04185218	     -4.41845725	     -2.74672917	     16.49881807
      1.15850000	     -0.51800069	      2.47050132	     -8.29354002	     -0.07143299	      0.99037250	      0.33133844	    -14.06041658	     -2.01245774	     -3.04152233	    -17.49769923	     12.41081207	      2.59355863	     13.11462374	     20.29835012	      3.28363899	    -10.18082849	      1.86066989	     -1.21256906	    -10.46482824	      8.14917011	     -4.34573656	     -2.98343382	     16.58481527
      1.16266667	     -0.47360027	      2.66660496	     -8.36421581	     -0.06516740	      0.99020967	      0.33120868	    -14.01907689	     -2.34353850	     -3.07773435	    -18.31619847	     12.09755505	      2.69568138	     13.49785431	     20.24177924	      3.52539413	     -9.80309595	      1.32681364	     -1.71383103	    -11.08971468	      8.26910668	     -4.29004860	     -3.24346622	     16.67157382
      1.16683333	     -0.43776498	      2.87374830	     -8.43836903	     -0.05888646	      0.99007562	      0.33106574	    -13.93701089	     -2.68939018	     -3.10792192	    -19.18523740	     11.74515818	      2.79347937	     13.90441875	     20.19489348	      3.77410091	     -9.46358887	      0.78575793	     -2.22558538	    -11.65375114	      8.38500400	     -4.22654408	     -3.50735856	     16.74394497
      1.17100000	     -0.40396651	      3.08539477	     -8.48888321	     -0.05260248	      0.98997247	      0.33089628	    -13.83667183	     -3.03375775	     -3.14631073	    -20.07881142	     11.35459347	      2.89229448	     14.44485730	     20.16724544	      4.03061714	     -9.12441692	      0.20152392	     -2.72803594	    -12.26422515	      8.52346944	     -4.16650598	     -3.78704002	     16.81815954
      1.17516667	     -0.34151801	      3.30047615	     -8.54726888	     -0.04629572	      0.98995633	      0.33071785	    -13.73569654	     -3.39354751	     -3.19071641	    -21.00855549	     10.78053260	      2.83182839	     20.39414083	     20.09606389	      4.28939872	     -8.87035712	     -0.36014183	     -3.19798014	    -12.67409102	      9.91111387	     -4.12798966	     -4.06203449	     16.78993886
      1.17933333	     -0.29638082	      3.53110992	     -8.62132668	     -0.04000497	      0.98994372	      0.33054573	    -13.56104454	     -3.77622103	     -3.22272220	    -22.04368869	     10.31265666	      2.93315582	     20.44040164	     20.05076032	      4.55212822	     -8.69611202	     -0.93737324	     -3.65434603	    -13.01315189	      9.91770953	     -4.06535917	     -4.35097045	     16.88105949
      1.18350000	     -0.24606511	      3.75469609	     -8.65790797	     -0.03374403	      0.98996593	      0.33030602	    -13.37585448	     -4.14473181	     -3.27423832	    -23.10371654	      9.80101222	      3.03247263	     20.57480655	     20.01140530	      4.82101357	     -8.45482863	     -1.54365010	     -4.09706463	    -13.49225375	      9.92759863	     -4.02222248	     -4.64003347	     16.92609334
      1.18766667	     -0.18919733	      3.99035174	     -8.70917178	     -0.02746573	      0.99004418	      0.33008147	    -13.15680086	     -4.53404901	     -3.30808749	    -24.22507995	      9.21534828	      3.08292154	     20.71914397	     19.95321493	      5.09330779	     -8.31247456	     -2.12660490	     -4.50256485	    -13.78270160	      9.93104587	     -3.97138530	     -4.93037555	     16.92531522
      1.19183333	     -0.13807808	      4.22051239	     -8.72814249	     -0.02123594	      0.99013257	      0.32980924	    -12.90528365	     -4.91001559	     -3.35313964	    -25.39105066	      8.61521972	      3.16572946	     21.00655565	     19.92313980	      5.36587502	     -8.14478389	     -2.76021182	     -4.86401091	    -14.15872186	      9.93409507	     -3.93568473	     -5.23106472	     16.93217271
      1.19600000	     -0.07918595	      4.45971896	     -8.76194666	     -0.01498534	      0.99028223	      0.32953711	    -12.62571276	     -5.30405959	     -3.37516368	    -26.60582311	      7.92566268	      3.17412099	     21.21437359	     19.86800275	      5.64093642	     -8.08051840	     -3.36113113	     -5.16950112	    -14.31842559	      9.93063177	     -3.88505549	     -5.52171223	     16.89637296
